<svg xmlns="http://www.w3.org/2000/svg" xmlns:xlink="http://www.w3.org/1999/xlink" viewBox="0 0 64 64"><defs><style>.cls-1{fill:url(#linear-gradient);}.cls-2{fill:url(#linear-gradient-2);}.cls-3{fill:url(#linear-gradient-3);}.cls-4{fill:url(#linear-gradient-4);}.cls-5{fill:url(#linear-gradient-5);}.cls-6{fill:url(#linear-gradient-6);}.cls-7{fill:url(#linear-gradient-7);}.cls-8{fill:url(#linear-gradient-8);}.cls-9{fill:url(#linear-gradient-9);}.cls-10{fill:url(#linear-gradient-10);}.cls-11{fill:url(#linear-gradient-11);}.cls-12{fill:url(#linear-gradient-12);}.cls-13{fill:url(#linear-gradient-13);}.cls-14{fill:url(#linear-gradient-14);}.cls-15{fill:url(#linear-gradient-15);}.cls-16{fill:url(#linear-gradient-16);}</style><linearGradient id="linear-gradient" x1="21" y1="53.77" x2="23" y2="53.77" gradientUnits="userSpaceOnUse"><stop offset="0" stop-color="#9f2fff"/><stop offset="1" stop-color="#0bb1d3"/></linearGradient><linearGradient id="linear-gradient-2" x1="20.99" y1="42.27" x2="23.01" y2="42.27" xlink:href="#linear-gradient"/><linearGradient id="linear-gradient-3" x1="20.99" y1="47.27" x2="23.01" y2="47.27" xlink:href="#linear-gradient"/><linearGradient id="linear-gradient-4" x1="31" y1="53.77" x2="33" y2="53.77" xlink:href="#linear-gradient"/><linearGradient id="linear-gradient-5" x1="30.99" y1="42.27" x2="33.01" y2="42.27" xlink:href="#linear-gradient"/><linearGradient id="linear-gradient-6" x1="30.99" y1="47.27" x2="33.01" y2="47.27" xlink:href="#linear-gradient"/><linearGradient id="linear-gradient-7" x1="41" y1="53.77" x2="43" y2="53.77" xlink:href="#linear-gradient"/><linearGradient id="linear-gradient-8" x1="40.99" y1="42.27" x2="43.01" y2="42.27" xlink:href="#linear-gradient"/><linearGradient id="linear-gradient-9" x1="40.99" y1="47.27" x2="43.01" y2="47.27" xlink:href="#linear-gradient"/><linearGradient id="linear-gradient-10" x1="26" y1="53.77" x2="28" y2="53.77" xlink:href="#linear-gradient"/><linearGradient id="linear-gradient-11" x1="25.99" y1="42.27" x2="28.01" y2="42.27" xlink:href="#linear-gradient"/><linearGradient id="linear-gradient-12" x1="25.99" y1="47.27" x2="28.01" y2="47.27" xlink:href="#linear-gradient"/><linearGradient id="linear-gradient-13" x1="36" y1="53.77" x2="38" y2="53.77" xlink:href="#linear-gradient"/><linearGradient id="linear-gradient-14" x1="35.99" y1="42.27" x2="38.01" y2="42.27" xlink:href="#linear-gradient"/><linearGradient id="linear-gradient-15" x1="35.99" y1="47.27" x2="38.01" y2="47.27" xlink:href="#linear-gradient"/><linearGradient id="linear-gradient-16" x1="4.19" y1="20.49" x2="59.79" y2="20.49" xlink:href="#linear-gradient"/></defs><g id="_52.cloud" data-name="52.cloud"><path class="cls-1" d="M22,50.77a1,1,0,0,0-1,1v4a1,1,0,1,0,2,0v-4A1,1,0,0,0,22,50.77Z"/><path class="cls-2" d="M22,40.77c-1.11,0-1,1.21-1,2a1,1,0,0,0,1,1c1.11,0,1-1.2,1-2A1,1,0,0,0,22,40.77Z"/><path class="cls-3" d="M22,45.77c-1.11,0-1,1.21-1,2a1,1,0,0,0,1,1c1.11,0,1-1.2,1-2A1,1,0,0,0,22,45.77Z"/><path class="cls-4" d="M32,50.77a1,1,0,0,0-1,1v4a1,1,0,1,0,2,0v-4A1,1,0,0,0,32,50.77Z"/><path class="cls-5" d="M32,40.77c-1.11,0-1,1.21-1,2a1,1,0,0,0,1,1c1.11,0,1-1.2,1-2A1,1,0,0,0,32,40.77Z"/><path class="cls-6" d="M32,45.77c-1.11,0-1,1.21-1,2a1,1,0,0,0,1,1c1.11,0,1-1.2,1-2A1,1,0,0,0,32,45.77Z"/><path class="cls-7" d="M42,50.77a1,1,0,0,0-1,1v4a1,1,0,1,0,2,0v-4A1,1,0,0,0,42,50.77Z"/><path class="cls-8" d="M42,40.77c-1.11,0-1,1.21-1,2a1,1,0,0,0,1,1c1.11,0,1-1.2,1-2A1,1,0,0,0,42,40.77Z"/><path class="cls-9" d="M42,45.77c-1.11,0-1,1.21-1,2a1,1,0,0,0,1,1c1.11,0,1-1.2,1-2A1,1,0,0,0,42,45.77Z"/><path class="cls-10" d="M27,50.77a1,1,0,0,0-1,1v4a1,1,0,1,0,2,0v-4A1,1,0,0,0,27,50.77Z"/><path class="cls-11" d="M27,40.77c-1.11,0-1,1.21-1,2a1,1,0,0,0,1,1c1.11,0,1-1.2,1-2A1,1,0,0,0,27,40.77Z"/><path class="cls-12" d="M27,45.77c-1.11,0-1,1.21-1,2a1,1,0,0,0,1,1c1.11,0,1-1.2,1-2A1,1,0,0,0,27,45.77Z"/><path class="cls-13" d="M37,50.77a1,1,0,0,0-1,1v4a1,1,0,1,0,2,0v-4A1,1,0,0,0,37,50.77Z"/><path class="cls-14" d="M37,40.77c-1.11,0-1,1.21-1,2a1,1,0,0,0,1,1c1.11,0,1-1.2,1-2A1,1,0,0,0,37,40.77Z"/><path class="cls-15" d="M37,45.77c-1.11,0-1,1.21-1,2a1,1,0,0,0,1,1c1.11,0,1-1.2,1-2A1,1,0,0,0,37,45.77Z"/><path class="cls-16" d="M46.61,13.25C41.1.88,22.91.88,17.39,13.24.76,12-.65,36.26,16,37H48C64.55,36.34,63.33,12,46.61,13.25ZM48,35H16A9.94,9.94,0,0,1,6.1,25.07C6.17,14.31,21,11.36,25.19,21.26A1,1,0,0,0,27,20.49a12,12,0,0,0-7.63-6.84c4.89-10.24,20.3-10.23,25.19,0A12,12,0,0,0,37,20.49a1,1,0,0,0,1.85.76A10,10,0,0,1,48,15.15C61.08,15.56,61.09,34.58,48,35Z"/></g></svg>